# xmcd
#
# Track frame offsets:
#	182
#	6725
#	24280
#	42155
#	66260
#	85970
#	102362
#	126070
#	147097
#	156032
#	175400
#	196770
#	223247
#	242725
#	265987
#	283860
#	306450
#
# Disc length: 4383 seconds
#
# Revision: 1
# Processed by: cddbd v1.5.2PL0 Copyright (c) Steve Scherf et al.
# Submitted via: audiograbber 1.83.01
#
DISCID=fc111d11
DTITLE=Ray Luv - Forever Hustlin'
DYEAR=1995
DGENRE=Rap
TTITLE0=Ray Luv - Intro
TTITLE1=Ray Luv - Forever Hustlin'
TTITLE2=Ray Luv - Tha Factor
TTITLE3=Ray Luv, Young Dre, Shima - Bubble
TTITLE4=Ray Luv - In The Game
TTITLE5=Ray Luv - Keep Ya Mask On
TTITLE6=Ray Luv, Do Thangs - I'd Rather Be A Pimp
TTITLE7=Ray Luv - Definition Of Ah Hustla'
TTITLE8=Ray Luv - We Do This Everyday
TTITLE9=Ray Luv, Mr. Gigalo - Ride Wit The Luvva Man
TTITLE10=Ray Luv, Link Crew - 24K
TTITLE11=Ray Luv, Ant D.O.G., Young Grin, Link Crew - What U In It 4
TTITLE12=Ray Luv, Do Thangs - Still Smokin' Indo
TTITLE13=Ray Luv, Rated R, Mo Preme - Stormy Weather
TTITLE14=Ray Luv, Do Thangs - Luv From Ah "G"
TTITLE15=Ray Luv, Stephanie Miller - Last Nite
TTITLE16=Ray Luv, Shima - Cage Bird
EXTD=RapMusicGuide.com
EXTT0=
EXTT1=
EXTT2=
EXTT3=
EXTT4=
EXTT5=
EXTT6=
EXTT7=
EXTT8=
EXTT9=
EXTT10=
EXTT11=
EXTT12=
EXTT13=
EXTT14=
EXTT15=
EXTT16=
PLAYORDER=
